<mxfile host="app.diagrams.net" agent="Mozilla/5.0 (Windows NT 10.0; Win64; x64) AppleWebKit/537.36 (KHTML, like Gecko) Chrome/129.0.0.0 Safari/537.36" version="24.7.16">
  <diagram name="PÃ¡gina-1" id="RQpZbXjT2fNJr7txQMZI">
    <mxGraphModel dx="2670" dy="796" grid="1" gridSize="10" guides="1" tooltips="1" connect="1" arrows="1" fold="1" page="1" pageScale="1" pageWidth="827" pageHeight="1169" math="0" shadow="0">
      <root>
        <mxCell id="0" />
        <mxCell id="1" parent="0" />
        <mxCell id="q70UdAARoM8nVghTvs59-1" value="produto" style="html=1;whiteSpace=wrap;" vertex="1" parent="1">
          <mxGeometry x="80" y="90" width="110" height="50" as="geometry" />
        </mxCell>
        <mxCell id="q70UdAARoM8nVghTvs59-2" value="cliente" style="html=1;whiteSpace=wrap;" vertex="1" parent="1">
          <mxGeometry x="570" y="90" width="110" height="50" as="geometry" />
        </mxCell>
        <mxCell id="q70UdAARoM8nVghTvs59-3" value="pedido" style="html=1;whiteSpace=wrap;" vertex="1" parent="1">
          <mxGeometry x="110" y="490" width="110" height="50" as="geometry" />
        </mxCell>
        <mxCell id="q70UdAARoM8nVghTvs59-4" value="item" style="html=1;whiteSpace=wrap;" vertex="1" parent="1">
          <mxGeometry x="510" y="330" width="110" height="50" as="geometry" />
        </mxCell>
        <mxCell id="q70UdAARoM8nVghTvs59-6" value="&lt;u&gt;cod&lt;/u&gt;" style="ellipse;whiteSpace=wrap;html=1;align=center;" vertex="1" parent="1">
          <mxGeometry x="-20" y="180" width="100" height="40" as="geometry" />
        </mxCell>
        <mxCell id="q70UdAARoM8nVghTvs59-7" value="nome" style="ellipse;whiteSpace=wrap;html=1;align=center;" vertex="1" parent="1">
          <mxGeometry x="85" y="250" width="100" height="40" as="geometry" />
        </mxCell>
        <mxCell id="q70UdAARoM8nVghTvs59-8" value="categorias" style="ellipse;whiteSpace=wrap;html=1;align=center;" vertex="1" parent="1">
          <mxGeometry x="190" y="180" width="100" height="40" as="geometry" />
        </mxCell>
        <mxCell id="q70UdAARoM8nVghTvs59-14" style="edgeStyle=orthogonalEdgeStyle;rounded=0;orthogonalLoop=1;jettySize=auto;html=1;entryX=0.75;entryY=1;entryDx=0;entryDy=0;" edge="1" parent="1" source="q70UdAARoM8nVghTvs59-9" target="q70UdAARoM8nVghTvs59-3">
          <mxGeometry relative="1" as="geometry" />
        </mxCell>
        <mxCell id="q70UdAARoM8nVghTvs59-9" value="data_elaboracao" style="ellipse;whiteSpace=wrap;html=1;align=center;" vertex="1" parent="1">
          <mxGeometry x="220" y="620" width="100" height="40" as="geometry" />
        </mxCell>
        <mxCell id="q70UdAARoM8nVghTvs59-13" style="edgeStyle=orthogonalEdgeStyle;rounded=0;orthogonalLoop=1;jettySize=auto;html=1;entryX=0.25;entryY=1;entryDx=0;entryDy=0;" edge="1" parent="1" source="q70UdAARoM8nVghTvs59-10" target="q70UdAARoM8nVghTvs59-3">
          <mxGeometry relative="1" as="geometry" />
        </mxCell>
        <mxCell id="q70UdAARoM8nVghTvs59-10" value="&lt;u&gt;numero&lt;/u&gt;" style="ellipse;whiteSpace=wrap;html=1;align=center;" vertex="1" parent="1">
          <mxGeometry x="10" y="620" width="100" height="40" as="geometry" />
        </mxCell>
      </root>
    </mxGraphModel>
  </diagram>
</mxfile>
